<?xml version="1.0"?>
<svg xmlns="http://www.w3.org/2000/svg" id="Outline" viewBox="0 0 512 512" width="512" height="512"><path d="M56,400H200a40.045,40.045,0,0,0,40-40V184a8,8,0,0,0-2.343-5.657l-64-64A8,8,0,0,0,168,112H56a40.045,40.045,0,0,0-40,40V360A40.045,40.045,0,0,0,56,400ZM176,139.313,212.687,176H200a24.028,24.028,0,0,1-24-24ZM32,152a24.028,24.028,0,0,1,24-24H160v24a40.045,40.045,0,0,0,40,40h24V360a24.028,24.028,0,0,1-24,24H56a24.028,24.028,0,0,1-24-24Z"/><path d="M429.657,114.343A8,8,0,0,0,424,112H312a40.045,40.045,0,0,0-40,40V360a40.045,40.045,0,0,0,40,40H456a40.045,40.045,0,0,0,40-40V184a8,8,0,0,0-2.343-5.657ZM432,139.313,468.687,176H456a24.028,24.028,0,0,1-24-24ZM480,360a24.028,24.028,0,0,1-24,24H312a24.028,24.028,0,0,1-24-24V152a24.028,24.028,0,0,1,24-24H416v24a40.045,40.045,0,0,0,40,40h24Z"/><circle cx="352" cy="256" r="8"/><circle cx="384" cy="256" r="8"/><circle cx="416" cy="256" r="8"/><path d="M328,72a8,8,0,0,0,8,8h40a8,8,0,0,0,8-8V32a8,8,0,0,0-16,0V47.573c-5.939-3.987-13.93-7.884-24.617-11.447C319.924,28.307,288.891,24,256,24s-63.924,4.307-87.383,12.126C135.047,47.316,128,61.811,128,72a8,8,0,0,0,16,0c0-13.048,43.631-32,112-32,55.231,0,94.312,12.368,107.294,24H336A8,8,0,0,0,328,72Z"/><path d="M376,432a8,8,0,0,0-8,8c0,13.048-43.631,32-112,32-55.231,0-94.312-12.368-107.294-24H176a8,8,0,0,0,0-16H136a8,8,0,0,0-8,8v40a8,8,0,0,0,16,0V464.427c5.939,3.987,13.93,7.884,24.617,11.447C192.076,483.693,223.109,488,256,488s63.924-4.307,87.383-12.126C376.953,464.684,384,450.189,384,440A8,8,0,0,0,376,432Z"/><path d="M120,240h64a8,8,0,0,0,0-16H120a8,8,0,0,0,0,16Z"/><path d="M72,288h64a8,8,0,0,0,0-16H72a8,8,0,0,0,0,16Z"/><path d="M184,320H136a8,8,0,0,0,0,16h48a8,8,0,0,0,0-16Z"/><path d="M72,240H88a8,8,0,0,0,0-16H72a8,8,0,0,0,0,16Z"/><path d="M184,272H168a8,8,0,0,0,0,16h16a8,8,0,0,0,0-16Z"/><path d="M72,336h32a8,8,0,0,0,0-16H72a8,8,0,0,0,0,16Z"/><path d="M72,192h32a8,8,0,0,0,0-16H72a8,8,0,0,0,0,16Z"/></svg>
