<svg id="Layer_1" enable-background="new 0 0 512 512" height="512" viewBox="0 0 512 512" width="512" xmlns="http://www.w3.org/2000/svg"><g><path d="m103.246 387.843c0-4.142-3.358-7.5-7.5-7.5-44.524 0-80.746-36.196-80.746-80.686 0-31.561 18.583-60.404 47.341-73.481 3.771-1.714 5.438-6.161 3.723-9.932-1.714-3.771-6.162-5.438-9.932-3.723-34.099 15.506-56.132 49.708-56.132 87.136 0 52.761 42.951 95.686 95.746 95.686 4.142 0 7.5-3.358 7.5-7.5z"/><path d="m157.051 231.168c10.814-60.393 63.302-104.226 124.804-104.226 47.031 0 89.967 25.807 112.051 67.351 1.945 3.657 6.485 5.046 10.143 3.102 3.657-1.944 5.046-6.485 3.102-10.143-4.2-7.901-9.075-15.293-14.532-22.12v-99.975l18.144-21.62c2.454.92 5.109 1.423 7.881 1.423 12.407 0 22.5-10.084 22.5-22.48s-10.094-22.48-22.5-22.48-22.5 10.084-22.5 22.48c0 4.166 1.14 8.071 3.125 11.419l-19.895 23.706c-1.133 1.351-1.755 3.058-1.755 4.821v86.662c-13.168-12.056-28.489-21.503-45.151-27.853v-52.348c8.73-3.093 15-11.427 15-21.196 0-12.396-10.093-22.48-22.5-22.48s-22.5 10.084-22.5 22.48c0 9.769 6.27 18.103 15 21.196v47.57c-11.469-2.963-23.418-4.515-35.613-4.515-6.209 0-12.337.4-18.355 1.177v-69.443c8.73-3.093 15-11.427 15-21.196 0-12.396-10.093-22.48-22.5-22.48s-22.5 10.084-22.5 22.48c0 9.769 6.27 18.103 15 21.196v72.205c-19.889 4.781-38.237 13.754-53.968 26.019v-73.013c8.73-3.093 15-11.427 15-21.196 0-12.396-10.093-22.48-22.5-22.48s-22.5 10.084-22.5 22.48c0 9.769 6.27 18.103 15 21.196v86.53c-16.346 16.99-28.536 38.15-34.799 62-3.503-2.096-7.118-3.954-10.828-5.57v-149.42c0-1.764-.622-3.471-1.755-4.821l-19.894-23.706c1.985-3.349 3.125-7.254 3.125-11.42 0-12.396-10.093-22.48-22.5-22.48s-22.5 10.084-22.5 22.48 10.093 22.48 22.5 22.48c2.771 0 5.427-.503 7.88-1.423l18.144 21.62v141.61c-7.488-1.851-15.245-2.795-23.16-2.795-4.142 0-7.5 3.358-7.5 7.5s3.358 7.5 7.5 7.5c18.041 0 35.101 5.813 49.337 16.81 1.333 1.03 2.951 1.565 4.586 1.565.909 0 1.823-.165 2.697-.502 2.447-.944 4.223-3.096 4.686-5.677zm261.593-216.168c4.136 0 7.5 3.355 7.5 7.48s-3.364 7.48-7.5 7.48-7.5-3.355-7.5-7.48 3.364-7.48 7.5-7.48zm-93.676 25.21c4.136 0 7.5 3.356 7.5 7.48s-3.364 7.48-7.5 7.48-7.5-3.355-7.5-7.48 3.364-7.48 7.5-7.48zm-68.968-25.21c4.136 0 7.5 3.355 7.5 7.48s-3.364 7.48-7.5 7.48-7.5-3.355-7.5-7.48 3.364-7.48 7.5-7.48zm-68.968 25.21c4.136 0 7.5 3.356 7.5 7.48s-3.364 7.48-7.5 7.48-7.5-3.355-7.5-7.48 3.364-7.48 7.5-7.48zm-101.651-17.73c0-4.125 3.364-7.48 7.5-7.48s7.5 3.355 7.5 7.48-3.364 7.48-7.5 7.48-7.5-3.356-7.5-7.48z"/><path d="m439.769 250.967c-5.475 0-10.867.605-16.125 1.805-.063-10.444-1.27-20.849-3.586-30.941-.927-4.038-4.952-6.559-8.988-5.632-4.037.927-6.559 4.951-5.632 8.988 2.129 9.273 3.208 18.848 3.208 28.456 0 2.931-.104 5.919-.309 8.88-.178 2.572.978 5.056 3.061 6.576 2.083 1.521 4.801 1.863 7.196.91 6.733-2.681 13.857-4.041 21.174-4.041 31.558 0 57.231 25.654 57.231 57.188s-25.674 57.188-57.231 57.188h-24.596c-4.142 0-7.5 3.358-7.5 7.5s3.358 7.5 7.5 7.5h24.596c39.829 0 72.231-32.383 72.231-72.188.001-39.805-32.402-72.189-72.23-72.189z"/><path d="m355.522 380.343h-69.507c-4.142 0-7.5 3.358-7.5 7.5s3.358 7.5 7.5 7.5h31.453v72.981c-8.73 3.093-15 11.427-15 21.196 0 12.396 10.093 22.48 22.5 22.48s22.5-10.084 22.5-22.48c0-9.77-6.27-18.104-15-21.196v-72.981h23.054c4.142 0 7.5-3.358 7.5-7.5s-3.358-7.5-7.5-7.5zm-30.554 116.657c-4.136 0-7.5-3.355-7.5-7.48s3.364-7.48 7.5-7.48 7.5 3.356 7.5 7.48-3.364 7.48-7.5 7.48z"/><path d="m225.962 380.343h-68.294c-4.142 0-7.5 3.358-7.5 7.5s3.358 7.5 7.5 7.5h21.864v72.981c-8.73 3.093-15 11.427-15 21.196 0 12.396 10.093 22.48 22.5 22.48s22.5-10.084 22.5-22.48c0-9.77-6.27-18.104-15-21.196v-72.981h31.43c4.142 0 7.5-3.358 7.5-7.5s-3.358-7.5-7.5-7.5zm-38.93 116.657c-4.136 0-7.5-3.355-7.5-7.48s3.364-7.48 7.5-7.48 7.5 3.356 7.5 7.48-3.364 7.48-7.5 7.48z"/><path d="m126.881 315.637c-12.407 0-22.5 10.084-22.5 22.48 0 9.769 6.27 18.103 15 21.196v102.51l-31.77 37.855c-2.663 3.173-2.249 7.903.924 10.566 1.405 1.179 3.116 1.755 4.817 1.755 2.14 0 4.266-.911 5.749-2.679l33.525-39.947c1.133-1.351 1.755-3.058 1.755-4.821v-105.24c8.73-3.093 15-11.427 15-21.196 0-12.395-10.093-22.479-22.5-22.479zm0 29.96c-4.136 0-7.5-3.355-7.5-7.48s3.364-7.48 7.5-7.48 7.5 3.356 7.5 7.48-3.364 7.48-7.5 7.48z"/><path d="m256 315.637c-12.407 0-22.5 10.084-22.5 22.48 0 9.769 6.27 18.103 15 21.196v145.187c0 4.142 3.358 7.5 7.5 7.5s7.5-3.358 7.5-7.5v-145.187c8.73-3.093 15-11.427 15-21.196 0-12.396-10.093-22.48-22.5-22.48zm0 29.96c-4.136 0-7.5-3.355-7.5-7.48s3.364-7.48 7.5-7.48 7.5 3.356 7.5 7.48-3.364 7.48-7.5 7.48z"/><path d="m392.619 461.823v-102.51c8.73-3.093 15-11.427 15-21.196 0-12.396-10.093-22.48-22.5-22.48s-22.5 10.084-22.5 22.48c0 9.769 6.27 18.103 15 21.196v105.24c0 1.764.622 3.471 1.755 4.821l33.525 39.947c1.484 1.768 3.609 2.679 5.749 2.679 1.701 0 3.412-.576 4.817-1.755 3.173-2.663 3.586-7.394.924-10.566zm-7.5-131.186c4.136 0 7.5 3.356 7.5 7.48s-3.364 7.48-7.5 7.48-7.5-3.355-7.5-7.48 3.364-7.48 7.5-7.48z"/></g></svg>