<?xml version="1.0" encoding="iso-8859-1"?>
<!-- Generator: Adobe Illustrator 18.0.0, SVG Export Plug-In . SVG Version: 6.00 Build 0)  -->
<!DOCTYPE svg PUBLIC "-//W3C//DTD SVG 1.1//EN" "http://www.w3.org/Graphics/SVG/1.1/DTD/svg11.dtd">
<svg version="1.1" id="Capa_1" xmlns="http://www.w3.org/2000/svg" xmlns:xlink="http://www.w3.org/1999/xlink" x="0px" y="0px"
	 viewBox="0 0 304.892 304.892" style="enable-background:new 0 0 304.892 304.892;" xml:space="preserve">
<g>
	<path style="fill:#231F20;" d="M8.081,154.953c0.002,0,0.004,0,0.006,0l20-0.015c4.142-0.003,7.497-3.363,7.494-7.505
		c-0.018-24.9,7.996-48.543,23.175-68.371c21.439-28.007,54.05-44.07,89.469-44.07c24.887,0,48.485,7.996,68.246,23.123
		c6.549,5.014,12.429,10.615,17.625,16.754l-36.932-6.52c-1.957-0.346-3.974,0.101-5.605,1.241c-1.63,1.141-2.739,2.882-3.085,4.841
		l-3.477,19.695c-0.72,4.079,2.003,7.969,6.082,8.689l88.629,15.647c0.434,0.077,0.869,0.114,1.304,0.114
		c1.528,0,3.031-0.467,4.301-1.355c1.63-1.141,2.739-2.882,3.085-4.841l15.647-88.63c0.72-4.079-2.003-7.969-6.082-8.689
		l-19.695-3.477c-4.087-0.723-7.969,2.003-8.689,6.082l-6.585,37.3c-7.387-9.162-15.87-17.463-25.248-24.642
		C211.831,10.486,180.884,0,148.249,0C101.827,0,59.078,21.063,30.964,57.787c-19.9,25.995-30.406,57.003-30.384,89.672
		c0.001,1.989,0.793,3.896,2.2,5.302C4.187,154.165,6.093,154.953,8.081,154.953z"/>
	<path style="fill:#231F20;" d="M302.111,152.131c-1.406-1.404-3.313-2.193-5.3-2.193c-0.002,0-0.004,0-0.006,0l-20,0.015
		c-4.142,0.003-7.497,3.363-7.494,7.505c0.018,24.9-7.996,48.543-23.175,68.371c-21.44,28.007-54.051,44.07-89.47,44.07
		c-24.886,0-48.484-7.996-68.245-23.123c-6.549-5.014-12.429-10.615-17.625-16.754l36.932,6.52c1.961,0.347,3.975-0.1,5.604-1.241
		c1.63-1.141,2.739-2.882,3.085-4.841l3.476-19.695c0.72-4.079-2.003-7.969-6.082-8.689l-88.629-15.647
		c-1.956-0.345-3.974,0.101-5.604,1.241c-1.63,1.141-2.739,2.882-3.085,4.841l-15.646,88.63c-0.72,4.079,2.003,7.969,6.082,8.689
		l19.695,3.477c0.441,0.078,0.88,0.116,1.313,0.116c3.57,0,6.734-2.56,7.377-6.198l6.585-37.3
		c7.387,9.162,15.87,17.463,25.248,24.642c25.913,19.838,56.86,30.324,89.496,30.324c46.423,0,89.171-21.063,117.284-57.787
		c19.9-25.995,30.406-57.003,30.384-89.672C304.31,155.444,303.518,153.537,302.111,152.131z"/>
</g>
<g>
</g>
<g>
</g>
<g>
</g>
<g>
</g>
<g>
</g>
<g>
</g>
<g>
</g>
<g>
</g>
<g>
</g>
<g>
</g>
<g>
</g>
<g>
</g>
<g>
</g>
<g>
</g>
<g>
</g>
</svg>
