<svg xmlns="http://www.w3.org/2000/svg" xmlns:xlink="http://www.w3.org/1999/xlink" id="visual" viewBox="0 0 900 450" preserveAspectRatio="none" version="1.1"><path d="M0 248L30 248C60 248 120 248 180 240.8C240 233.7 300 219.3 360 221.2C420 223 480 241 540 237C600 233 660 207 720 204C780 201 840 221 870 231L900 241L900 451L870 451C840 451 780 451 720 451C660 451 600 451 540 451C480 451 420 451 360 451C300 451 240 451 180 451C120 451 60 451 30 451L0 451Z" fill="#bfd9ff"/><path d="M0 260L30 251.8C60 243.7 120 227.3 180 226.7C240 226 300 241 360 241.2C420 241.3 480 226.7 540 232.7C600 238.7 660 265.3 720 267.3C780 269.3 840 246.7 870 235.3L900 224L900 451L870 451C840 451 780 451 720 451C660 451 600 451 540 451C480 451 420 451 360 451C300 451 240 451 180 451C120 451 60 451 30 451L0 451Z" fill="#c1d3fe"/><path d="M0 255L30 267.2C60 279.3 120 303.7 180 308.2C240 312.7 300 297.3 360 285.3C420 273.3 480 264.7 540 272.2C600 279.7 660 303.3 720 312C780 320.7 840 314.3 870 311.2L900 308L900 451L870 451C840 451 780 451 720 451C660 451 600 451 540 451C480 451 420 451 360 451C300 451 240 451 180 451C120 451 60 451 30 451L0 451Z" fill="#c5ccfb"/><path d="M0 329L30 328.8C60 328.7 120 328.3 180 323.8C240 319.3 300 310.7 360 313.7C420 316.7 480 331.3 540 330.8C600 330.3 660 314.7 720 310.3C780 306 840 313 870 316.5L900 320L900 451L870 451C840 451 780 451 720 451C660 451 600 451 540 451C480 451 420 451 360 451C300 451 240 451 180 451C120 451 60 451 30 451L0 451Z" fill="#cbc5f7"/><path d="M0 351L30 348.5C60 346 120 341 180 348C240 355 300 374 360 381C420 388 480 383 540 376.7C600 370.3 660 362.7 720 357.3C780 352 840 349 870 347.5L900 346L900 451L870 451C840 451 780 451 720 451C660 451 600 451 540 451C480 451 420 451 360 451C300 451 240 451 180 451C120 451 60 451 30 451L0 451Z" fill="#d2bef1"/><path d="M0 414L30 415.2C60 416.3 120 418.7 180 415.2C240 411.7 300 402.3 360 395.3C420 388.3 480 383.7 540 386.2C600 388.7 660 398.3 720 405C780 411.7 840 415.3 870 417.2L900 419L900 451L870 451C840 451 780 451 720 451C660 451 600 451 540 451C480 451 420 451 360 451C300 451 240 451 180 451C120 451 60 451 30 451L0 451Z" fill="#d9b6ea"/></svg>
