<svg id="Capa_1" enable-background="new 0 0 511.874 511.874" height="512" viewBox="0 0 511.874 511.874" width="512" xmlns="http://www.w3.org/2000/svg"><g><path d="m511.845 171.839c-2.329-116.319-144.271-202.043-255.908-104.427-111.562-97.553-253.578-11.949-255.908 104.427-.854 42.637 17.215 83.688 52.251 118.716.095.1 71.118 70.733 193.075 192.027 5.852 5.821 15.31 5.822 21.164 0l193.075-192.027c35.036-35.027 53.104-76.079 52.251-118.716zm-255.908 278.951-164.736-163.842h52.708c5.27 0 10.154-2.765 12.865-7.282l11.516-19.188 42.98 67.523c6.321 9.933 21.163 9.035 26.217-1.632l59.316-125.19 41.946 77.881c2.617 4.858 7.69 7.889 13.21 7.889h68.712zm193.758-193.842h-88.773l-51.765-96.111c-5.803-10.774-21.496-10.44-26.769.69l-60.388 127.452-41.427-65.083c-6.04-9.494-19.838-9.136-25.523.335l-19.635 32.718h-73.233c-21.672-26.059-32.742-54.999-32.152-84.509 1.873-93.531 121.098-168.061 215.298-73.885 5.854 5.853 15.36 5.858 21.218 0 120.273-120.246 285.622 35.198 183.149 158.393z"/></g></svg>