<?xml version="1.0" encoding="iso-8859-1"?>
<!-- Generator: Adobe Illustrator 16.0.0, SVG Export Plug-In . SVG Version: 6.00 Build 0)  -->
<!DOCTYPE svg PUBLIC "-//W3C//DTD SVG 1.1//EN" "http://www.w3.org/Graphics/SVG/1.1/DTD/svg11.dtd">
<svg version="1.1" id="Capa_1" xmlns="http://www.w3.org/2000/svg" xmlns:xlink="http://www.w3.org/1999/xlink" x="0px" y="0px"
	 width="568.705px" height="568.705px" viewBox="0 0 568.705 568.705" style="enable-background:new 0 0 568.705 568.705;"
	 xml:space="preserve">
<g>
	<g>
		<g>
			<path d="M529.117,317.082c-16.576,0-31.23,10.682-36.342,26.454c-27.636,85.372-107.769,147.314-202.232,147.314
				c-117.274,0-212.688-95.424-212.688-212.707c0-94.075,61.43-173.951,146.278-201.901c16.383-5.398,27.483-20.716,27.483-37.985
				c0-12.232-5.853-23.731-15.737-30.924c-9.884-7.204-22.62-9.237-34.251-5.492C84.793,39.468,0.001,148.976,0.001,278.147
				c0,160.218,130.332,290.558,290.541,290.558c128.654,0,237.793-84.126,275.828-200.219c3.912-11.938,1.861-25.024-5.514-35.2
				C553.5,323.116,541.699,317.082,529.117,317.082z"/>
			<path d="M355.888,75.905c64.584,20.908,115.691,71.902,136.752,136.419c5.246,16.061,20.205,26.906,37.103,26.906h0.801
				c12.201,0,23.666-5.834,30.848-15.69c7.168-9.855,9.218-22.562,5.476-34.174c-28.49-88.591-98.416-158.661-186.933-187.36
				c-11.729-3.8-24.596-1.758-34.573,5.492c-9.979,7.26-15.89,18.856-15.89,31.198v0.847
				C329.468,56.099,340.148,70.801,355.888,75.905z"/>
		</g>
	</g>
</g>
<g>
</g>
<g>
</g>
<g>
</g>
<g>
</g>
<g>
</g>
<g>
</g>
<g>
</g>
<g>
</g>
<g>
</g>
<g>
</g>
<g>
</g>
<g>
</g>
<g>
</g>
<g>
</g>
<g>
</g>
</svg>
