<?xml version="1.0" encoding="iso-8859-1"?>
<!-- Generator: Adobe Illustrator 16.0.0, SVG Export Plug-In . SVG Version: 6.00 Build 0)  -->
<!DOCTYPE svg PUBLIC "-//W3C//DTD SVG 1.1//EN" "http://www.w3.org/Graphics/SVG/1.1/DTD/svg11.dtd">
<svg version="1.1" id="Capa_1" xmlns="http://www.w3.org/2000/svg" xmlns:xlink="http://www.w3.org/1999/xlink" x="0px" y="0px"
	 width="92px" height="92px" viewBox="0 0 92 92" style="enable-background:new 0 0 92 92;" xml:space="preserve">
<g>
	<g>
		<rect x="20.502" y="12.82" width="50.582" height="10.172"/>
		<rect x="13.786" y="31.227" width="64.698" height="10.172"/>
		<rect x="13.786" y="50.602" width="64.735" height="10.172"/>
		<rect x="13.478" y="69.008" width="65.006" height="10.172"/>
		<polygon points="85.472,87.424 76.318,87.424 76.318,92 90.048,92 90.048,78.271 85.472,78.271 		"/>
		<rect x="35.894" y="87.424" width="20.211" height="4.576"/>
		<polygon points="6.526,78.271 1.951,78.271 1.951,92 15.681,92 15.681,87.424 6.526,87.424 		"/>
		<rect x="1.951" y="35.242" width="4.577" height="21.515"/>
		<polygon points="6.526,4.576 15.681,4.576 15.681,0 1.951,0 1.951,13.729 6.526,13.729 		"/>
		<rect x="35.893" width="20.212" height="4.576"/>
		<polygon points="76.318,0 76.318,4.576 85.472,4.576 85.472,13.729 90.048,13.729 90.048,0 		"/>
		<rect x="85.472" y="35.243" width="4.577" height="21.515"/>
	</g>
</g>
<g>
</g>
<g>
</g>
<g>
</g>
<g>
</g>
<g>
</g>
<g>
</g>
<g>
</g>
<g>
</g>
<g>
</g>
<g>
</g>
<g>
</g>
<g>
</g>
<g>
</g>
<g>
</g>
<g>
</g>
</svg>
